<svg width="183" height="39" viewBox="0 0 183 39" fill="none" xmlns="http://www.w3.org/2000/svg">
<path d="M9.67209 38.0654C7.86942 38.0654 6.13609 37.8227 4.47209 37.3374C2.80809 36.8174 1.31742 36.1067 8.59499e-05 35.2054V28.9134C0.90142 31.2361 2.27075 33.0041 4.10809 34.2174C5.98009 35.3961 7.92142 35.9854 9.93209 35.9854C11.9428 35.9854 13.6241 35.3267 14.9761 34.0094C16.3281 32.6574 17.0041 30.9934 17.0041 29.0174C17.0041 27.7001 16.7268 26.5734 16.1721 25.6374C15.6521 24.7014 14.8028 23.8347 13.6241 23.0374C12.4454 22.2054 10.7814 21.2867 8.63209 20.2814C5.61609 18.8947 3.41475 17.4561 2.02809 15.9654C0.676086 14.4401 8.59499e-05 12.6027 8.59499e-05 10.4534C8.59499e-05 8.61607 0.433419 6.98674 1.30009 5.5654C2.20142 4.1094 3.39742 3.00007 4.88809 2.2374C6.41342 1.44007 8.07742 1.0414 9.88009 1.0414C11.4401 1.0414 12.9654 1.26674 14.4561 1.7174C15.9468 2.13341 17.3334 2.74007 18.6161 3.53741V9.1534C17.7841 7.24674 16.5188 5.7734 14.8201 4.73341C13.1561 3.65874 11.4574 3.1214 9.72409 3.1214C7.74809 3.1214 6.15342 3.76274 4.94009 5.0454C3.72675 6.32807 3.12009 7.8534 3.12009 9.6214C3.12009 10.9041 3.48409 12.0134 4.21209 12.9494C4.94009 13.8507 5.82409 14.6134 6.86409 15.2374C7.93875 15.8614 9.42942 16.6241 11.3361 17.5254C13.2774 18.4614 14.8721 19.3281 16.1201 20.1254C17.3681 20.9227 18.4081 21.9627 19.2401 23.2454C20.0721 24.5281 20.4881 26.0881 20.4881 27.9254C20.4881 30.0054 19.9854 31.8081 18.9801 33.3334C18.0094 34.8587 16.6921 36.0374 15.0281 36.8694C13.3988 37.6667 11.6134 38.0654 9.67209 38.0654ZM27.6807 37.4414C27.6807 37.5454 27.8887 37.4761 28.3047 37.2334C28.7207 36.9561 29.0847 36.4361 29.3967 35.6734C29.7434 34.8761 29.9167 33.7321 29.9167 32.2414V6.70941C29.9167 5.28807 29.7434 4.2134 29.3967 3.4854C29.0847 2.72274 28.7207 2.20274 28.3047 1.9254C27.8887 1.64807 27.6807 1.5614 27.6807 1.66541H46.5047V6.86541C45.8807 4.78541 44.0087 3.74541 40.8887 3.74541H33.6607V18.5134H42.6047C43.2981 18.5134 43.8874 18.4094 44.3727 18.2014C44.8581 17.9587 45.2221 17.7161 45.4647 17.4734C45.7074 17.2307 45.8461 17.0747 45.8807 17.0054V22.0494C45.8461 21.9801 45.7074 21.8241 45.4647 21.5814C45.2221 21.3387 44.8581 21.1134 44.3727 20.9054C43.9221 20.6974 43.3501 20.5934 42.6567 20.5934H33.6607V35.3614H41.7727C43.3327 35.3614 44.6674 35.0494 45.7767 34.4254C46.9207 33.7667 47.7354 32.9347 48.2207 31.9294L47.2847 37.4414H27.6807ZM78.5014 4.4214C78.5014 3.72807 78.3107 3.13874 77.9294 2.6534C77.5481 2.13341 76.9587 1.80407 76.1614 1.66541H84.8974C84.4467 1.73474 83.8401 2.1334 83.0774 2.86141C82.3147 3.5894 81.5174 4.9414 80.6854 6.91741L67.5294 38.6894L54.1654 6.7614C53.4027 4.92407 52.6401 3.65874 51.8774 2.9654C51.1494 2.2374 50.5427 1.80407 50.0574 1.66541H58.7414C57.8054 1.90807 57.3374 2.51474 57.3374 3.4854C57.3374 4.0054 57.4587 4.56007 57.7014 5.1494C57.9441 5.73874 58.0827 6.0854 58.1174 6.18941L68.2054 30.8894L77.9814 6.86541C78.3281 6.06807 78.5014 5.25341 78.5014 4.4214ZM91.8695 23.5574L88.5415 31.8254C88.0215 33.1081 87.7615 34.1654 87.7615 34.9974C87.7615 36.1414 88.2815 36.9561 89.3215 37.4414H81.8855C82.2321 37.4414 82.7348 37.0947 83.3935 36.4014C84.0521 35.7081 84.8148 34.3387 85.6815 32.2934L99.2535 0.00140476L112.721 32.4494C113.484 34.3214 114.212 35.6041 114.905 36.2974C115.633 36.9907 116.205 37.3721 116.621 37.4414H107.989C108.856 37.0254 109.289 36.3841 109.289 35.5174C109.289 34.7894 109.012 33.7494 108.457 32.3974L104.817 23.5574H91.8695ZM103.985 21.4254L98.3175 7.5414L92.7535 21.4254H103.985ZM121.906 3.74541C120.381 3.74541 119.115 4.04007 118.11 4.6294C117.105 5.21874 116.377 5.96407 115.926 6.86541L116.654 1.66541H141.302L142.03 6.86541C141.579 5.96407 140.851 5.21874 139.846 4.6294C138.841 4.04007 137.575 3.74541 136.05 3.74541H130.85V32.6054C130.85 33.9921 131.023 35.0494 131.37 35.7774C131.717 36.5054 132.098 36.9907 132.514 37.2334C132.93 37.4761 133.138 37.5454 133.138 37.4414H124.87C124.87 37.5454 125.078 37.4761 125.494 37.2334C125.91 36.9907 126.274 36.5227 126.586 35.8294C126.933 35.1014 127.106 34.0267 127.106 32.6054V3.74541H121.906ZM145.823 19.9694C145.823 16.2947 146.603 13.0187 148.163 10.1414C149.758 7.26407 151.976 5.02807 154.819 3.4334C157.696 1.83874 161.007 1.0414 164.751 1.0414C167.871 1.0414 170.783 1.73474 173.487 3.1214C176.226 4.4734 178.41 6.51874 180.039 9.2574C181.703 11.9961 182.535 15.2894 182.535 19.1374C182.535 22.8121 181.738 26.0881 180.143 28.9654C178.583 31.8427 176.364 34.0787 173.487 35.6734C170.644 37.2681 167.351 38.0654 163.607 38.0654C160.487 38.0654 157.558 37.3894 154.819 36.0374C152.115 34.6507 149.931 32.5881 148.267 29.8494C146.638 27.1107 145.823 23.8174 145.823 19.9694ZM178.375 19.9174C178.375 16.7627 177.716 13.9201 176.399 11.3894C175.116 8.82407 173.331 6.83074 171.043 5.4094C168.79 3.9534 166.242 3.2254 163.399 3.2254C160.799 3.2254 158.476 3.88407 156.431 5.20141C154.42 6.51874 152.843 8.39074 151.699 10.8174C150.555 13.2094 149.983 16.0001 149.983 19.1894C149.983 22.3441 150.624 25.2041 151.907 27.7694C153.224 30.3001 155.01 32.2934 157.263 33.7494C159.551 35.1707 162.116 35.8814 164.959 35.8814C167.559 35.8814 169.864 35.2227 171.875 33.9054C173.92 32.5881 175.515 30.7334 176.659 28.3414C177.803 25.9147 178.375 23.1067 178.375 19.9174Z" fill="white"/>
</svg>
